<svg width="37" height="35" viewBox="0 0 37 35" fill="none" xmlns="http://www.w3.org/2000/svg">
<path d="M31.0019 11.8556C30.6198 11.0361 29.9278 10.402 29.0781 10.0927C28.2284 9.78345 27.2907 9.82439 26.4712 10.2065L21.3215 12.6079C21.831 13.7005 21.8856 14.9508 21.4732 16.0837C21.0609 17.2166 20.2154 18.1393 19.1228 18.6488C18.0301 19.1583 16.7798 19.2129 15.6469 18.8006C14.514 18.3882 13.5913 17.5427 13.0818 16.4501L7.93207 18.8515C7.11258 19.2336 6.47847 19.9256 6.16921 20.7753C5.85996 21.625 5.9009 22.5627 6.28303 23.3822M31.0019 11.8556L34.8441 20.0952C35.2263 20.9147 35.2672 21.8524 34.9579 22.7021C34.6487 23.5517 34.0146 24.2437 33.1951 24.6259L14.6559 33.2708C13.8364 33.653 12.8987 33.6939 12.0491 33.3847C11.1994 33.0754 10.5074 32.4413 10.1252 31.6218L6.28303 23.3822M31.0019 11.8556L29.0808 7.73574ZM6.28303 23.3822L4.36193 19.2624ZM29.0808 7.73574C28.6987 6.91626 28.0067 6.28214 27.157 5.97289C26.3073 5.66363 25.3696 5.70457 24.5501 6.0867L6.01096 14.7317C5.19148 15.1138 4.55736 15.8058 4.24811 16.6555C3.93886 17.5052 3.9798 18.4429 4.36193 19.2624M29.0808 7.73574L27.1597 3.61592C26.7776 2.79644 26.0856 2.16232 25.2359 1.85307C24.3862 1.54382 23.4485 1.58476 22.629 1.96689L4.08986 10.6118C3.27038 10.994 2.63626 11.686 2.32701 12.5357C2.01775 13.3853 2.0587 14.3231 2.44083 15.1425L4.36193 19.2624" fill="#202122"/>
<path d="M31.0019 11.8556C30.6198 11.0361 29.9278 10.402 29.0781 10.0927C28.2284 9.78345 27.2907 9.82439 26.4712 10.2065L21.3215 12.6079C21.831 13.7005 21.8856 14.9508 21.4732 16.0837C21.0609 17.2166 20.2154 18.1393 19.1228 18.6488C18.0301 19.1583 16.7798 19.2129 15.6469 18.8006C14.514 18.3882 13.5913 17.5427 13.0818 16.4501L7.93207 18.8515C7.11258 19.2336 6.47847 19.9256 6.16921 20.7753C5.85996 21.625 5.9009 22.5627 6.28303 23.3822M31.0019 11.8556L34.8441 20.0952C35.2263 20.9147 35.2672 21.8524 34.9579 22.7021C34.6487 23.5517 34.0146 24.2437 33.1951 24.6259L14.6559 33.2708C13.8364 33.653 12.8987 33.6939 12.0491 33.3847C11.1994 33.0754 10.5074 32.4413 10.1252 31.6218L6.28303 23.3822M31.0019 11.8556L29.0808 7.73574M6.28303 23.3822L4.36193 19.2624M29.0808 7.73574C28.6987 6.91626 28.0067 6.28214 27.157 5.97289C26.3073 5.66363 25.3696 5.70457 24.5501 6.0867L6.01096 14.7317C5.19148 15.1138 4.55736 15.8058 4.24811 16.6555C3.93886 17.5052 3.9798 18.4429 4.36193 19.2624M29.0808 7.73574L27.1597 3.61592C26.7776 2.79644 26.0856 2.16232 25.2359 1.85307C24.3862 1.54382 23.4485 1.58476 22.629 1.96689L4.08986 10.6118C3.27038 10.994 2.63626 11.686 2.32701 12.5357C2.01775 13.3853 2.0587 14.3231 2.44083 15.1425L4.36193 19.2624" stroke="white" stroke-width="2.30395" stroke-linecap="round" stroke-linejoin="round"/>
</svg>
