<svg width="152" height="35" viewBox="0 0 152 35" fill="none" xmlns="http://www.w3.org/2000/svg">
<path d="M31.0019 11.8556C30.6198 11.0361 29.9278 10.402 29.0781 10.0927C28.2284 9.78345 27.2907 9.82439 26.4712 10.2065L21.3215 12.6079C21.831 13.7005 21.8856 14.9508 21.4732 16.0837C21.0609 17.2166 20.2154 18.1393 19.1228 18.6488C18.0301 19.1583 16.7798 19.2129 15.6469 18.8006C14.514 18.3882 13.5913 17.5427 13.0818 16.4501L7.93207 18.8515C7.11258 19.2336 6.47847 19.9256 6.16921 20.7753C5.85996 21.625 5.9009 22.5627 6.28303 23.3822M31.0019 11.8556L34.8441 20.0952C35.2263 20.9147 35.2672 21.8524 34.9579 22.7021C34.6487 23.5517 34.0146 24.2437 33.1951 24.6259L14.6559 33.2708C13.8364 33.653 12.8987 33.6939 12.0491 33.3847C11.1994 33.0754 10.5074 32.4413 10.1252 31.6218L6.28303 23.3822M31.0019 11.8556L29.0808 7.73574ZM6.28303 23.3822L4.36193 19.2624ZM29.0808 7.73574C28.6987 6.91626 28.0067 6.28214 27.157 5.97289C26.3073 5.66363 25.3696 5.70457 24.5501 6.0867L6.01096 14.7317C5.19148 15.1138 4.55736 15.8058 4.24811 16.6555C3.93886 17.5052 3.9798 18.4429 4.36193 19.2624M29.0808 7.73574L27.1597 3.61592C26.7776 2.79644 26.0856 2.16232 25.2359 1.85307C24.3862 1.54382 23.4485 1.58476 22.629 1.96689L4.08986 10.6118C3.27038 10.994 2.63626 11.686 2.32701 12.5357C2.01775 13.3853 2.0587 14.3231 2.44083 15.1425L4.36193 19.2624" fill="#202122"/>
<path d="M31.0019 11.8556C30.6198 11.0361 29.9278 10.402 29.0781 10.0927C28.2284 9.78345 27.2907 9.82439 26.4712 10.2065L21.3215 12.6079C21.831 13.7005 21.8856 14.9508 21.4732 16.0837C21.0609 17.2166 20.2154 18.1393 19.1228 18.6488C18.0301 19.1583 16.7798 19.2129 15.6469 18.8006C14.514 18.3882 13.5913 17.5427 13.0818 16.4501L7.93207 18.8515C7.11258 19.2336 6.47847 19.9256 6.16921 20.7753C5.85996 21.625 5.9009 22.5627 6.28303 23.3822M31.0019 11.8556L34.8441 20.0952C35.2263 20.9147 35.2672 21.8524 34.9579 22.7021C34.6487 23.5517 34.0146 24.2437 33.1951 24.6259L14.6559 33.2708C13.8364 33.653 12.8987 33.6939 12.0491 33.3847C11.1994 33.0754 10.5074 32.4413 10.1252 31.6218L6.28303 23.3822M31.0019 11.8556L29.0808 7.73574M6.28303 23.3822L4.36193 19.2624M29.0808 7.73574C28.6987 6.91626 28.0067 6.28214 27.157 5.97289C26.3073 5.66363 25.3696 5.70457 24.5501 6.0867L6.01096 14.7317C5.19148 15.1138 4.55736 15.8058 4.24811 16.6555C3.93886 17.5052 3.9798 18.4429 4.36193 19.2624M29.0808 7.73574L27.1597 3.61592C26.7776 2.79644 26.0856 2.16232 25.2359 1.85307C24.3862 1.54382 23.4485 1.58476 22.629 1.96689L4.08986 10.6118C3.27038 10.994 2.63626 11.686 2.32701 12.5357C2.01775 13.3853 2.0587 14.3231 2.44083 15.1425L4.36193 19.2624" stroke="white" stroke-width="2.30395" stroke-linecap="round" stroke-linejoin="round"/>
<path d="M47.6302 27V6.48565H49.5931V27H47.6302ZM60.9715 27.1382C59.5707 27.1382 58.3082 26.8249 57.1838 26.1982C56.078 25.5531 55.2025 24.6776 54.5573 23.5717C53.9122 22.4474 53.5897 21.1664 53.5897 19.7287C53.5897 18.2726 53.9122 16.9917 54.5573 15.8858C55.2025 14.7799 56.078 13.9136 57.1838 13.2869C58.2897 12.6602 59.5523 12.3469 60.9715 12.3469C62.4092 12.3469 63.681 12.6602 64.7869 13.2869C65.9112 13.9136 66.7867 14.7799 67.4134 15.8858C68.0585 16.9917 68.381 18.2726 68.381 19.7287C68.381 21.1664 68.0585 22.4474 67.4134 23.5717C66.7867 24.6776 65.9112 25.5531 64.7869 26.1982C63.6625 26.8249 62.3908 27.1382 60.9715 27.1382ZM60.9715 25.3965C62.0221 25.3965 62.9529 25.1661 63.7639 24.7053C64.5749 24.226 65.2108 23.5625 65.6716 22.7147C66.1508 21.8484 66.3904 20.8531 66.3904 19.7287C66.3904 18.586 66.1508 17.5907 65.6716 16.7428C65.2108 15.895 64.5749 15.2407 63.7639 14.7799C62.9529 14.3006 62.0314 14.061 60.9992 14.061C59.967 14.061 59.0454 14.3006 58.2344 14.7799C57.4235 15.2407 56.7784 15.895 56.2991 16.7428C55.8199 17.5907 55.5803 18.586 55.5803 19.7287C55.5803 20.8531 55.8199 21.8484 56.2991 22.7147C56.7784 23.5625 57.4235 24.226 58.2344 24.7053C59.0454 25.1661 59.9578 25.3965 60.9715 25.3965ZM81.4036 27V23.7929L81.3206 23.2676V17.904C81.3206 16.6691 80.9704 15.7199 80.27 15.0563C79.5881 14.3928 78.5651 14.061 77.2012 14.061C76.2612 14.061 75.3672 14.2177 74.5194 14.531C73.6715 14.8444 72.9527 15.2591 72.3629 15.7752L71.4782 14.3099C72.2154 13.6832 73.1002 13.204 74.1323 12.8722C75.1645 12.522 76.252 12.3469 77.3947 12.3469C79.2747 12.3469 80.7216 12.8169 81.7354 13.7569C82.7675 14.6785 83.2836 16.0885 83.2836 17.987V27H81.4036ZM76.3994 27.1382C75.312 27.1382 74.3627 26.9631 73.5517 26.6129C72.7592 26.2443 72.1509 25.7467 71.727 25.12C71.3031 24.4749 71.0911 23.7376 71.0911 22.9082C71.0911 22.1525 71.2662 21.4705 71.6164 20.8623C71.9851 20.2356 72.5749 19.738 73.3859 19.3693C74.2153 18.9823 75.3212 18.7887 76.7035 18.7887H81.7077V20.254H76.7588C75.358 20.254 74.3812 20.5029 73.8282 21.0005C73.2937 21.4982 73.0264 22.1156 73.0264 22.8529C73.0264 23.6823 73.349 24.3459 73.9941 24.8435C74.6392 25.3412 75.5423 25.59 76.7035 25.59C77.8094 25.59 78.7587 25.3412 79.5512 24.8435C80.3622 24.3274 80.952 23.5902 81.3206 22.6317L81.763 23.9864C81.3944 24.9449 80.7493 25.7098 79.8277 26.2812C78.9245 26.8525 77.7818 27.1382 76.3994 27.1382ZM96.0247 12.3469C97.2043 12.3469 98.2365 12.5773 99.1212 13.0381C100.024 13.4804 100.725 14.1624 101.222 15.084C101.739 16.0056 101.997 17.1668 101.997 18.5676V27H100.034V18.7611C100.034 17.2313 99.6465 16.0793 98.8724 15.3052C98.1167 14.5126 97.0477 14.1163 95.6653 14.1163C94.6331 14.1163 93.73 14.3283 92.9559 14.7522C92.2002 15.1577 91.6104 15.7567 91.1864 16.5493C90.7809 17.3234 90.5782 18.2634 90.5782 19.3693V27H88.6152V12.4851H90.4953V16.4664L90.1911 15.7199C90.6519 14.6693 91.3892 13.8491 92.4029 13.2593C93.4167 12.651 94.6239 12.3469 96.0247 12.3469ZM113.077 27.1382C111.695 27.1382 110.451 26.8249 109.345 26.1982C108.257 25.5716 107.4 24.7053 106.774 23.5994C106.147 22.475 105.833 21.1848 105.833 19.7287C105.833 18.2542 106.147 16.964 106.774 15.8581C107.4 14.7522 108.257 13.8951 109.345 13.2869C110.451 12.6602 111.695 12.3469 113.077 12.3469C114.349 12.3469 115.482 12.6326 116.478 13.204C117.491 13.7753 118.293 14.614 118.883 15.7199C119.491 16.8073 119.795 18.1436 119.795 19.7287C119.795 21.2954 119.501 22.6317 118.911 23.7376C118.321 24.8435 117.519 25.6914 116.505 26.2812C115.51 26.8525 114.367 27.1382 113.077 27.1382ZM113.215 25.3965C114.248 25.3965 115.169 25.1661 115.98 24.7053C116.809 24.226 117.455 23.5625 117.915 22.7147C118.395 21.8484 118.634 20.8531 118.634 19.7287C118.634 18.586 118.395 17.5907 117.915 16.7428C117.455 15.895 116.809 15.2407 115.98 14.7799C115.169 14.3006 114.248 14.061 113.215 14.061C112.202 14.061 111.289 14.3006 110.478 14.7799C109.667 15.2407 109.022 15.895 108.543 16.7428C108.064 17.5907 107.824 18.586 107.824 19.7287C107.824 20.8531 108.064 21.8484 108.543 22.7147C109.022 23.5625 109.667 24.226 110.478 24.7053C111.289 25.1661 112.202 25.3965 113.215 25.3965ZM118.69 27V22.6317L118.883 19.7011L118.607 16.7705V6.48565H120.57V27H118.69ZM132.202 27.1382C130.69 27.1382 129.363 26.8249 128.221 26.1982C127.078 25.5531 126.184 24.6776 125.539 23.5717C124.894 22.4474 124.571 21.1664 124.571 19.7287C124.571 18.2911 124.875 17.0193 125.483 15.9134C126.11 14.8075 126.958 13.9412 128.027 13.3146C129.114 12.6694 130.331 12.3469 131.676 12.3469C133.04 12.3469 134.248 12.6602 135.298 13.2869C136.367 13.8951 137.206 14.7614 137.814 15.8858C138.422 16.9917 138.727 18.2726 138.727 19.7287C138.727 19.8209 138.717 19.9223 138.699 20.0329C138.699 20.125 138.699 20.2264 138.699 20.337H126.064V18.8717H137.648L136.874 19.4523C136.874 18.4017 136.644 17.4709 136.183 16.6599C135.741 15.8305 135.132 15.1854 134.358 14.7246C133.584 14.2638 132.69 14.0334 131.676 14.0334C130.681 14.0334 129.787 14.2638 128.995 14.7246C128.202 15.1854 127.585 15.8305 127.142 16.6599C126.7 17.4893 126.479 18.4385 126.479 19.5076V19.8117C126.479 20.9176 126.718 21.8945 127.198 22.7423C127.695 23.5717 128.377 24.226 129.243 24.7053C130.128 25.1661 131.133 25.3965 132.257 25.3965C133.142 25.3965 133.962 25.2398 134.718 24.9264C135.492 24.6131 136.155 24.1339 136.708 23.4888L137.814 24.7606C137.169 25.5347 136.358 26.1245 135.381 26.53C134.423 26.9355 133.363 27.1382 132.202 27.1382ZM142.722 27V12.4851H144.602V16.4387L144.408 15.7475C144.814 14.6416 145.496 13.803 146.454 13.2316C147.413 12.6418 148.602 12.3469 150.021 12.3469V14.2546C149.947 14.2546 149.873 14.2546 149.8 14.2546C149.726 14.2361 149.652 14.2269 149.579 14.2269C148.049 14.2269 146.851 14.6969 145.984 15.6369C145.118 16.5585 144.685 17.8764 144.685 19.5905V27H142.722Z" fill="#202122"/>
</svg>
