<svg width="361" height="392" viewBox="0 0 361 392" fill="none" xmlns="http://www.w3.org/2000/svg">
<g clip-path="url(#clip0_303_4999)">
<path d="M47.0165 339.167C46.7577 338.81 46.5538 338.424 46.4204 338.01C46.1694 337.236 46.1537 336.394 46.3596 335.537C46.3067 334.494 46.3949 333.557 46.6361 332.686C47.2264 330.537 48.8304 328.578 51.1444 327.172C53.1485 325.956 55.3918 325.278 57.7136 324.632C63.0592 323.146 68.5146 321.864 73.9838 320.807C74.9427 320.508 75.9016 320.22 76.8605 319.94C77.0233 319.893 77.1939 319.848 77.3684 319.81L38.1333 301.599C38.049 301.824 37.9529 302.013 37.8921 302.126C36.6234 304.454 34.6036 306.346 32.1995 307.46C31.1915 307.927 30.1248 308.254 29.0678 308.543C28.654 308.696 28.2324 308.831 27.8088 308.952C27.0951 309.153 26.1557 309.368 25.2184 309.247C23.9399 309.086 22.7554 308.282 22.1299 307.154C21.5083 306.025 21.4514 304.595 21.9867 303.425C23.0417 301.132 25.8577 300.361 27.8834 299.977C30.6581 299.454 33.4957 299.152 36.3155 299.085C36.6548 299.079 37.0234 299.091 37.3588 299.199L37.3941 299.126L58.2078 308.788C53.4485 303.275 48.2068 292.996 47.8676 292.006C47.4558 290.802 47.0303 289.396 47.2146 287.966C47.5754 285.119 50.558 282.83 53.725 282.97C56.4272 283.089 59.1236 284.764 60.9355 287.447C62.5611 289.849 63.3416 292.71 63.9495 295.439C65.2241 301.213 65.5967 305.888 65.1202 310.168C65.0633 310.688 64.9673 311.286 64.5731 311.727C64.5711 311.729 64.5653 311.733 64.5613 311.737L99.5607 327.982C97.2801 325.207 95.4054 322.073 94.0641 318.765C93.264 316.79 92.3483 313.876 93.6131 311.378C94.6563 309.327 97.1134 308.096 99.4627 308.45C101.7 308.79 103.694 310.521 104.424 312.753C104.853 314.067 104.855 315.463 104.824 316.785C104.714 321.128 104.224 325.493 103.377 329.752L139.506 346.527L138.694 348.276L120.722 339.932C120.678 340.097 120.612 340.252 120.527 340.385C120.363 340.644 120.139 340.846 119.97 341.003L111.021 349.201C108.973 351.076 106.859 353.012 104.314 354.308C101.433 355.771 98.3606 356.102 95.88 355.212C94.8073 354.825 93.9641 354.263 93.3758 353.539C92.2424 352.145 92.0365 350.011 92.8463 348.107C93.4621 346.656 94.6112 345.313 96.3663 344.005C102.116 339.712 109.513 338.653 116.711 338.071L81.6982 321.82C81.7218 321.965 81.7375 322.109 81.7335 322.248C81.7335 322.267 81.7335 322.289 81.7335 322.309C81.7022 323.254 81.2315 324.109 80.7746 324.821C80.4001 325.397 80 325.956 79.5745 326.489C78.5117 328.403 76.8292 330.09 75.2565 331.494C68.7813 337.281 60.9316 343.148 51.8366 342.783C50.96 342.748 49.9443 342.644 49.0814 342.126C47.9598 341.452 47.3656 340.261 47.0165 339.167Z" fill="#A8D46C"/>
<path d="M94.972 211.555C93.6169 211.951 92.5227 212.889 91.5971 213.734C90.7794 214.489 82.3786 224.756 79.8764 231.241C77.3311 217.524 76.733 207.882 76.6761 206.859L76.6957 206.851C76.6899 206.835 76.6801 206.817 76.6722 206.8C76.6722 206.792 76.6702 206.77 76.6702 206.768H76.6565C74.8387 202.621 72.1522 198.775 68.8852 195.64C67.3772 194.193 65.0496 192.293 62.314 192.538C60.0628 192.742 58.0469 194.536 57.5155 196.805C57.0115 198.97 57.8587 201.419 59.6314 202.894C60.6727 203.768 61.9453 204.278 63.1611 204.729C66.9517 206.133 70.8815 207.221 74.8505 207.996C75.178 212.559 76.7526 230.382 82.6296 251.716L70.4559 241.37C67.3478 238.728 64.1318 235.995 60.3138 234.23C55.9997 232.235 51.4659 231.922 47.8675 233.363C46.3086 233.985 45.0987 234.861 44.277 235.957C42.6867 238.071 42.4964 241.217 43.7907 243.976C44.7751 246.074 46.5419 247.982 49.1951 249.812C57.9901 255.885 69.0852 256.993 79.8235 257.444C80.2824 257.479 80.7471 257.507 81.206 257.532C82.1433 257.583 83.2826 257.397 84.1278 256.906C84.3984 257.803 84.673 258.701 84.9593 259.607C89.5558 274.159 95.8368 287.354 102.588 298.891C102.167 298.797 101.747 298.697 101.329 298.608C97.4997 297.33 93.6013 296.202 89.697 295.238C88.0047 294.822 86.3437 294.453 84.6475 294.506C82.6865 294.571 80.9785 295.238 79.8411 296.383C79.3803 296.845 78.994 297.404 78.6548 298.085C78.2233 298.555 77.9312 299.091 77.8135 299.669C77.7527 299.973 77.7429 300.291 77.7821 300.609C77.6096 301.424 77.5625 302.389 78.0312 303.209C78.39 303.844 78.994 304.272 79.5333 304.605C85.1475 308.07 92.1854 307.154 98.3311 305.805C99.8214 305.48 101.484 305.013 102.833 304.183C103.294 303.995 103.745 303.789 104.187 303.554C104.475 303.403 104.777 303.219 105.055 302.999C123.122 332.363 143.437 349.923 143.728 350.17L144.957 348.729C144.726 348.533 131.591 337.173 117.133 317.528C119.739 315.698 122.047 313.375 123.832 310.745C124.724 309.435 125.847 307.456 125.318 305.444C124.883 303.787 123.286 302.507 121.523 302.399C119.841 302.295 118.121 303.238 117.237 304.748C116.721 305.638 116.501 306.654 116.317 307.619C115.846 310.102 115.548 312.629 115.413 315.159C108.475 305.48 101.345 293.945 95.2681 280.856C96.3976 281.083 97.6585 280.811 98.1958 280.662C103.29 279.281 108.105 276.185 111.752 271.947C113.285 270.165 114.603 268.204 115.841 266.239C116.396 265.492 116.927 264.723 117.431 263.937C118.276 262.613 119.302 260.85 119.714 258.926C120.276 256.3 119.614 253.551 117.978 251.751C116.337 249.957 113.772 249.145 111.27 249.641C106.381 250.616 103.075 255.84 101.014 259.685C98.1919 264.952 95.7348 270.455 93.713 276.036C93.6209 276.287 93.5287 276.548 93.4522 276.81C90.9794 271.147 88.7184 265.215 86.7653 259.038C84.2572 251.098 82.3629 243.462 80.9314 236.599C81.3217 236.608 81.708 236.508 82.057 236.401C86.0927 235.144 90.1539 232.967 94.8386 229.547C97.0584 227.927 99.3214 226.1 100.843 223.692C102.545 221.003 102.988 217.92 102.029 215.442C100.91 212.54 97.6781 210.759 94.972 211.555Z" fill="#A8D46C"/>
<mask id="mask0_303_4999" style="mask-type:luminance" maskUnits="userSpaceOnUse" x="258" y="268" width="94" height="105">
<path d="M258.05 268.849H351.71V372.49H258.05V268.849Z" fill="white"/>
</mask>
<g mask="url(#mask0_303_4999)">
<path d="M304.396 345.952C304.27 344.799 304.962 343.809 306.913 343.985C308.174 344.097 309.263 345.025 309.822 346.154C310.949 348.419 309.067 349.594 306.97 348.984C305.562 348.574 304.527 347.17 304.396 345.952ZM314.195 308.225C313.995 307.347 314.661 305.65 316.236 305.446C317.587 305.276 317.965 307.282 318.02 308.129C318.134 309.81 316.895 310.521 315.846 310.266C315.412 310.162 315.012 309.896 314.749 309.47C314.512 309.086 314.302 308.682 314.195 308.225ZM281.105 348.364C281.699 356.667 285.766 365.232 292.894 369.609C300.021 373.988 310.194 372.947 314.632 366.232C309.651 366.921 305.362 362.33 302.097 358.202C301.072 356.898 300.003 355.51 299.754 353.888C299.503 352.268 300.44 350.4 302.029 350.317C303.321 350.247 304.431 351.308 305.349 352.292C309.329 356.577 314.098 361.434 319.679 360.905C324.064 360.485 327.235 356.812 329.772 353.247C332.459 349.478 334.928 345.548 337.177 341.477C335.3 343.446 332.871 345.574 330.178 344.815C328.541 344.354 327.327 342.926 326.229 341.573C324.652 339.636 323.074 337.7 321.499 335.763C320.962 335.106 320.413 334.424 320.187 333.612C319.273 330.357 324.011 328.649 327.064 330.023C330.12 331.392 332.624 334.249 335.885 334.745C340.536 335.445 344.117 331.068 346.021 326.819C347.651 323.195 348.784 319.314 349.37 315.32C347.451 318.395 343.352 319.708 339.805 318.591C336.259 317.477 333.445 314.143 332.671 310.455C335.922 306.929 341.978 312.076 346.666 311C349.302 310.396 351.053 307.796 351.533 305.076C352.01 302.358 351.453 299.516 350.861 296.763C348.841 287.411 346.36 278.138 343.436 268.994C341.215 274.898 336.795 277.671 330.706 279.038C327.186 279.832 322.505 280.438 321.978 284.093C321.693 286.099 322.966 288.055 324.295 289.649C325.629 291.243 327.153 292.855 327.545 294.879C327.935 296.9 326.445 299.316 324.474 298.875C323.613 298.681 322.915 298.014 322.315 297.336C318.283 292.767 316.616 286.182 318.032 280.446C313.553 281.528 309.171 282.966 304.939 284.739C301.138 286.329 296.993 288.847 296.644 293.08C296.322 296.961 299.346 300.354 301.952 303.362C304.562 306.368 307.123 310.404 305.737 313.975C304.39 315.279 302.168 313.6 301.025 311.988C297.132 306.497 294.418 300.171 293.151 293.624C289.602 294.992 285.976 296.404 283.139 298.932C280.303 301.456 278.36 305.354 279.121 309.26C280.376 315.677 288.321 320.546 287.017 326.817C285.547 328.684 282.531 326.711 281.062 324.693C277.122 319.283 274.483 312.92 273.467 306.378C271.02 309.435 267.241 311.029 264.298 313.586C257.866 319.179 256.218 329.735 260.548 337.628C264.88 345.523 272.846 350.625 281.105 348.364Z" fill="#A8D46C"/>
</g>
<path d="M337.501 288.976C337.11 290.496 336.152 291.98 335.424 293.355C334.096 295.853 332.71 298.316 331.296 300.771C328.48 305.672 325.639 310.61 322.437 315.273C320.642 317.883 318.377 320.171 316.191 322.448C313.328 325.433 310.318 328.286 307.098 330.884C303.05 334.151 298.675 336.877 294.038 339.21C290.449 341.014 286.798 342.691 283.874 345.517C283.556 345.825 284.074 346.278 284.392 345.974C287.027 343.426 290.3 341.836 293.546 340.22C298.097 337.957 302.437 335.404 306.457 332.27C309.41 329.97 312.194 327.448 314.846 324.803C317.469 322.185 320.248 319.493 322.423 316.479C325.556 312.149 328.223 307.435 330.91 302.819C332.588 299.93 334.243 297.024 335.82 294.075C336.655 292.514 337.732 290.843 338.177 289.11C338.287 288.68 337.61 288.547 337.501 288.976Z" fill="#7CAE4A"/>
<path d="M332.049 320.33C326.751 319.718 321.321 319.334 316.569 322.203C316.187 322.432 316.565 323.011 316.946 322.781C321.534 320.012 326.808 320.416 331.916 321.007C332.353 321.058 332.49 320.381 332.049 320.33Z" fill="#7CAE4A"/>
<path d="M321.572 303.034C322.229 304.409 322.909 305.789 323.278 307.276C323.772 309.266 323.684 311.349 323.527 313.375C323.496 313.812 324.172 313.953 324.204 313.508C324.353 311.559 324.449 309.58 324.064 307.65C323.721 305.942 322.976 304.378 322.227 302.819C322.037 302.421 321.378 302.634 321.572 303.034Z" fill="#7CAE4A"/>
<path d="M296.126 322.787C297.342 327.786 298.393 332.963 296.212 337.861C296.034 338.265 296.65 338.569 296.834 338.163C299.091 333.094 298.04 327.752 296.779 322.572C296.675 322.14 296.02 322.36 296.126 322.787Z" fill="#7CAE4A"/>
<path d="M341.111 294.551C338.293 294.589 335.481 295.73 333.198 297.336C332.836 297.589 333.21 298.167 333.577 297.912C335.763 296.373 338.452 295.275 341.152 295.24C341.599 295.234 341.552 294.545 341.111 294.551Z" fill="#7CAE4A"/>
<path d="M245.29 218.934C247.065 217.044 249.047 216.616 250.689 217.032C252.197 217.417 253.64 216.197 253.587 214.642C253.299 206.561 254.603 193.795 265.764 194.075C279.715 194.426 281.058 204.6 281.154 207.535C281.166 207.955 281.505 208.294 281.929 208.298C283.9 208.32 288.922 208.898 288.345 214.244C288.296 214.679 288.741 215.001 289.131 214.803C291.712 213.498 298.946 210.708 304.733 216.667C311.908 224.054 300.536 229.363 285.77 229.886C275.279 230.259 258.546 229.804 249.736 229.512C244.539 229.341 241.656 223.225 245.012 219.248C245.1 219.142 245.192 219.038 245.29 218.934Z" fill="#DFF0F5"/>
<path d="M311.581 219.674C311.828 219.238 312.016 218.772 312.191 218.301C312.538 217.371 313.661 215.879 317.293 216.842C322.376 218.191 325.204 224.243 320.995 225.641C316.95 226.984 308.343 225.404 311.581 219.674Z" fill="#DFF0F5"/>
<path d="M93.1659 75.707C86.8065 73.0028 74.0661 82.7881 69.5872 67.1454C67.4125 59.5545 63.3043 51.6969 51.1031 54.4109C43.0769 56.1993 39.9923 61.8469 38.1254 67.4062C38.0234 67.7082 37.6822 67.8494 37.3999 67.7043C36.1331 67.0474 34.4584 66.5591 32.2347 66.3924C25.7595 65.9081 21.0022 71.7968 20.6512 77.2248C20.6061 77.9327 20.0159 78.4739 19.308 78.4798C14.4467 78.5249 8.74422 79.9662 5.78512 85.6923C0.0139852 96.8776 45.332 94.7127 72.815 95.0735C100.3 95.4324 100.288 78.7406 93.1659 75.707Z" fill="#DFF0F5"/>
<path d="M307.719 80.2192C307.719 80.2192 297.72 77.0444 294.163 83.9333C290.604 90.8261 318.53 89.4927 335.465 89.7162C352.402 89.9339 352.057 80.2996 348.006 77.7818C343.954 75.2658 337.646 82.6195 335.465 78.9427C333.285 75.2658 333.783 62.0568 322.085 64.659C310.39 67.2631 315.724 83.1725 307.719 80.2192Z" fill="#DFF0F5"/>
<path d="M172.152 218.52L192.332 223.568C192.332 223.568 217.691 169.571 216.531 161.778C214.542 148.418 161.908 161.625 158.57 169.298C155.237 176.971 172.152 218.52 172.152 218.52Z" fill="#F4564A"/>
<path d="M207.341 27.269H147.071C141.255 27.269 136.496 32.0283 136.496 37.8445V166.619C136.496 172.436 141.255 177.195 147.071 177.195H207.341C213.158 177.195 217.917 172.436 217.917 166.619V37.8445C217.917 32.0283 213.158 27.269 207.341 27.269Z" fill="#D1C2FF"/>
<mask id="mask1_303_4999" style="mask-type:luminance" maskUnits="userSpaceOnUse" x="134" y="25" width="86" height="154">
<path d="M134.803 25.7671H219.643V178.715H134.803V25.7671Z" fill="white"/>
</mask>
<g mask="url(#mask1_303_4999)">
<path d="M138.653 37.0328C138.653 32.9501 141.963 29.6419 146.046 29.6419H156.609L156.974 32.6795C157.251 34.962 159.184 36.6798 161.482 36.6798H192.932C195.231 36.6798 197.168 34.962 197.441 32.6795L197.805 29.6419H208.367C212.45 29.6419 215.762 32.9501 215.762 37.0328V167.431C215.762 171.514 212.45 174.822 208.367 174.822H146.046C141.963 174.822 138.653 171.514 138.653 167.431V37.0328ZM134.852 37.0328V167.431C134.852 173.603 139.874 178.627 146.046 178.627H208.367C214.542 178.627 219.566 173.603 219.566 167.431V37.0328C219.566 30.8597 214.542 25.8376 208.367 25.8376H146.046C139.874 25.8376 134.852 30.8597 134.852 37.0328Z" fill="#33213D"/>
</g>
<path d="M114.923 161.778C114.923 161.778 128.375 195.677 129.087 212.818L171.562 226.743L174.136 190.865L114.923 161.778Z" fill="#F4564A"/>
<path d="M232.277 108.44C226.42 107.208 216.736 110.116 212.556 118.423C207.759 127.947 217.44 133.258 230.965 128.712C242.315 124.898 238.697 109.793 232.277 108.44Z" fill="#F4564A"/>
<path d="M219.084 115.07L223.649 126.439C223.649 126.439 217.391 128.108 215.242 123.714C213.095 119.317 219.084 115.07 219.084 115.07Z" fill="#F49F4A"/>
<path d="M237.097 129.026C231.779 126.282 221.666 126.508 215.428 133.405C208.275 141.309 216.197 149.004 230.442 148.218C242.398 147.561 242.925 132.036 237.097 129.026Z" fill="#F4564A"/>
<path d="M222.613 131.908L223.99 144.08C223.99 144.08 217.517 144.027 216.613 139.221C215.711 134.411 222.613 131.908 222.613 131.908Z" fill="#F49F4A"/>
<path d="M234.303 148.024C229.906 145.608 221.433 145.586 216.06 151.228C209.899 157.697 216.372 164.313 228.322 163.958C238.35 163.66 239.123 150.665 234.303 148.024Z" fill="#F4564A"/>
<path d="M222.107 150.126L223.004 160.354C223.004 160.354 217.582 160.17 216.927 156.123C216.276 152.079 222.107 150.126 222.107 150.126Z" fill="#F49F4A"/>
<mask id="mask2_303_4999" style="mask-type:luminance" maskUnits="userSpaceOnUse" x="91" y="220" width="116" height="173">
<path d="M91.6306 220.381H206.847V392.817H91.6306V220.381Z" fill="white"/>
</mask>
<g mask="url(#mask2_303_4999)">
<path d="M91.9658 392.817C91.9658 392.817 124.457 286.631 122.924 220.483L198.662 229.343C198.662 229.343 216.587 289.182 199.192 392.817H91.9658Z" fill="#785EB7"/>
</g>
<path d="M128.514 221.14L128.587 207.698L197.435 224.843L198.662 229.343L128.514 221.14Z" fill="#E0E0E0"/>
<path d="M142.357 186.096C142.357 186.096 117.251 172.318 111.711 155.018C106.173 137.719 123.479 117.958 123.886 112.346C124.969 97.3247 137.109 101.798 138.598 114.009C140.414 128.892 136.537 137.278 136.894 139.842C138.249 149.665 161.625 148.69 169.803 171.145C174.885 185.102 175.848 193.071 171.413 195.377C166.977 197.681 142.357 186.096 142.357 186.096Z" fill="#F4564A"/>
<path d="M210.828 42.1765C216.054 67.3495 207.032 78.7466 207.032 78.7466C207.032 78.7466 221.515 73.5245 234.815 73.9971C248.114 74.4737 259.511 75.8993 264.264 72.0989C269.01 68.2986 266.873 38.3761 264.025 37.1878C261.174 36.0014 208.787 32.3403 210.828 42.1765Z" fill="#33213D"/>
<path d="M207.504 39.3271C212.73 64.4981 203.704 75.8992 203.704 75.8992C203.704 75.8992 218.192 70.6732 231.491 71.1497C244.79 71.6223 256.187 73.0479 260.937 69.2476C265.686 65.4472 263.549 35.5268 260.701 34.3404C257.85 33.152 205.463 29.4929 207.504 39.3271Z" fill="#F49F4A"/>
<path d="M227.157 53.0402C227.157 54.7129 225.8 56.0679 224.127 56.0679C222.455 56.0679 221.1 54.7129 221.1 53.0402C221.1 51.3675 222.455 50.0105 224.127 50.0105C225.8 50.0105 227.157 51.3675 227.157 53.0402Z" fill="white"/>
<path d="M239.066 53.0402C239.066 54.7129 237.709 56.0679 236.036 56.0679C234.364 56.0679 233.007 54.7129 233.007 53.0402C233.007 51.3675 234.364 50.0105 236.036 50.0105C237.709 50.0105 239.066 51.3675 239.066 53.0402Z" fill="white"/>
<path d="M250.971 53.0402C250.971 54.7129 249.614 56.0679 247.941 56.0679C246.272 56.0679 244.915 54.7129 244.915 53.0402C244.915 51.3675 246.272 50.0105 247.941 50.0105C249.614 50.0105 250.971 51.3675 250.971 53.0402Z" fill="white"/>
<path d="M227.482 110.054C231.728 106.481 233.724 100.904 232.706 95.4521C231.391 88.4456 228.671 80.1782 223.178 81.1979C213.816 82.9412 216.942 98.827 218.08 102.827C219.217 106.828 219.084 115.07 219.084 115.07L227.482 110.054Z" fill="#F4564A"/>
<path d="M187.338 380.049C187.281 380.049 187.22 380.042 187.159 380.03C186.7 379.934 186.404 379.481 186.502 379.02C194.901 339.05 193.872 299.695 192.513 279.795C192.481 279.322 192.836 278.914 193.307 278.883C193.779 278.856 194.185 279.205 194.217 279.677C195.584 299.665 196.615 339.203 188.173 379.369C188.091 379.773 187.734 380.049 187.338 380.049Z" fill="#33213D"/>
<path d="M141.496 244.474C141.496 247.478 139.062 249.914 136.058 249.914C133.054 249.914 130.622 247.478 130.622 244.474C130.622 241.472 133.054 239.036 136.058 239.036C139.062 239.036 141.496 241.472 141.496 244.474Z" fill="#F49F4A"/>
<path d="M176.75 206.759C176.743 206.759 176.737 206.759 176.731 206.759C176.448 206.751 176.227 206.514 176.235 206.231C176.686 191.23 170.673 175.165 170.613 175.003C170.515 174.74 170.648 174.444 170.911 174.346C171.175 174.244 171.469 174.377 171.571 174.642C171.632 174.803 177.719 191.059 177.26 206.263C177.252 206.539 177.023 206.759 176.75 206.759Z" fill="#33213D"/>
<path d="M177.068 75.8581L177.052 76.5072L179.655 76.5778L179.629 77.5563L177.295 77.4916C177.603 78.1524 178.341 78.9309 179.427 78.9623C180.827 78.9996 181.578 77.6641 181.578 77.6641L182.702 78.3466C182.702 78.3466 181.674 80.2193 179.394 80.1565C177.546 80.1055 176.284 78.7682 175.829 77.4504L175.017 77.4288L175.042 76.4503L175.693 76.4699L175.711 75.8189L175.06 75.7993L175.085 74.8247L175.901 74.8482C176.427 73.5579 177.762 72.2911 179.607 72.3421C181.778 72.4029 182.71 74.1658 182.71 74.1658L181.551 74.7835C181.551 74.7835 180.876 73.5716 179.576 73.5363C178.49 73.5049 177.709 74.2442 177.366 74.8854L179.7 74.9521L179.674 75.9267L177.068 75.8581Z" fill="white"/>
<path d="M203.225 106.047L203.257 104.92C201.796 104.649 201.18 103.382 201.18 103.382L202.176 102.704C202.176 102.704 202.745 103.751 203.72 103.78C204.482 103.802 205.041 103.272 205.057 102.674C205.092 101.374 201.719 101.498 201.786 99.1643C201.812 98.2426 202.59 97.5033 203.467 97.2562L203.5 96.062L204.802 96.0973L204.771 97.2366C205.904 97.5406 206.422 98.4779 206.422 98.4779L205.422 99.1564C205.422 99.1564 204.9 98.3818 204.251 98.3642C203.6 98.3485 203.151 98.7662 203.139 99.3094C203.104 100.615 206.473 100.488 206.408 102.821C206.381 103.853 205.6 104.592 204.561 104.9L204.526 106.081L203.225 106.047Z" fill="white"/>
<path d="M152.466 100.241L153.66 100.272L153.629 101.464L152.487 101.433C152.45 102.847 151.779 103.478 151.779 103.478L151.777 103.586L154.707 103.668L154.678 104.751L150.011 104.623L150.034 103.755C150.034 103.755 151.138 103.135 151.187 101.398L150.428 101.376L150.46 100.182L151.111 100.202C151.111 100.202 150.962 99.6524 150.977 99.1092C151.011 97.8621 151.846 97.0718 153.095 97.1071C154.127 97.1345 154.758 97.8581 154.758 97.8581L154.082 98.7641C154.082 98.7641 153.713 98.319 153.174 98.3033C152.738 98.2896 152.348 98.6582 152.336 99.1485C152.319 99.6897 152.466 100.241 152.466 100.241Z" fill="white"/>
<path d="M178.858 128.82L178.843 129.363L180.198 129.4L180.168 130.487L178.813 130.447L178.794 131.099L177.493 131.063L177.509 130.414L176.152 130.375L176.186 129.289L177.541 129.328L177.552 128.785L176.197 128.747L176.227 127.661L177.203 127.688L175.305 123.619L176.772 123.657L178.207 126.794L178.315 126.796L179.917 123.747L181.384 123.784L179.268 127.747L180.243 127.773L180.213 128.857L178.858 128.82Z" fill="white"/>
<path d="M167.987 125.333C167.149 124.978 166.32 124.572 165.524 124.127L165.743 123.733C166.528 124.168 167.344 124.569 168.161 124.918L167.987 125.333Z" fill="white"/>
<path d="M187.604 125.68L187.444 125.257C188.281 124.937 189.108 124.569 189.906 124.163L190.108 124.565C189.301 124.978 188.455 125.353 187.604 125.68Z" fill="white"/>
<path d="M163.961 123.188L163.955 123.184C163.186 122.686 162.443 122.147 161.739 121.578L162.021 121.225C162.714 121.784 163.447 122.317 164.2 122.804L164.231 122.829L164.092 122.978L163.961 123.188Z" fill="white"/>
<path d="M191.712 123.682L191.477 123.292C192.246 122.835 192.999 122.327 193.713 121.788L193.985 122.149C193.26 122.698 192.493 123.213 191.712 123.682Z" fill="white"/>
<path d="M160.359 120.378C159.688 119.756 159.047 119.092 158.451 118.405L158.794 118.111C159.378 118.784 160.01 119.435 160.666 120.047L160.359 120.378Z" fill="white"/>
<path d="M195.409 121L195.109 120.656C195.785 120.07 196.437 119.441 197.046 118.784L197.38 119.092C196.758 119.758 196.093 120.4 195.409 121Z" fill="white"/>
<path d="M157.301 116.983C156.752 116.256 156.237 115.491 155.768 114.711L156.154 114.479C156.615 115.248 157.123 115.997 157.66 116.715L157.301 116.983Z" fill="white"/>
<path d="M198.576 117.711L198.227 117.429C198.786 116.733 199.319 115.999 199.809 115.248L200.196 115.479L200.19 115.491C199.688 116.26 199.149 117.005 198.576 117.711Z" fill="white"/>
<path d="M154.882 113.111C154.472 112.301 154.097 111.455 153.77 110.606L154.193 110.444C154.513 111.281 154.882 112.11 155.286 112.907L154.882 113.111Z" fill="white"/>
<path d="M201.139 113.911L200.743 113.691C201.18 112.907 201.576 112.095 201.925 111.273L202.343 111.45C201.986 112.285 201.584 113.115 201.139 113.911Z" fill="white"/>
<path d="M154.529 91.1634L154.111 90.9849C154.47 90.1496 154.872 89.322 155.317 88.5239L155.713 88.7436C155.276 89.524 154.878 90.3398 154.529 91.1634Z" fill="white"/>
<path d="M202.257 91.9909C201.935 91.1536 201.566 90.328 201.16 89.5279L201.564 89.324C201.976 90.1339 202.351 90.979 202.678 91.8301L202.257 91.9909Z" fill="white"/>
<path d="M156.644 87.1944L156.26 86.9571L156.262 86.9493C156.758 86.1884 157.297 85.4413 157.87 84.7373L158.221 85.0236C157.66 85.7158 157.129 86.4453 156.644 87.1944Z" fill="white"/>
<path d="M200.292 87.9573C199.831 87.1886 199.323 86.4395 198.784 85.7218L199.148 85.4512C199.694 86.1787 200.211 86.9435 200.678 87.7239L200.292 87.9573Z" fill="white"/>
<path d="M159.396 83.6646L159.066 83.3567C159.688 82.69 160.349 82.0488 161.037 81.4507L161.335 81.7899C160.66 82.3782 160.006 83.0097 159.396 83.6646Z" fill="white"/>
<path d="M197.652 84.3274C197.068 83.6509 196.437 82.9999 195.78 82.39L196.087 82.0566C196.758 82.6802 197.395 83.343 197.995 84.0294L197.652 84.3274Z" fill="white"/>
<path d="M162.729 80.6604L162.457 80.2996C163.184 79.7486 163.953 79.2348 164.733 78.7661L164.965 79.1524C164.196 79.6152 163.443 80.1211 162.729 80.6604Z" fill="white"/>
<path d="M194.421 81.2134C193.728 80.6545 193.001 80.127 192.252 79.6387L192.363 79.4407L192.487 79.2544L192.501 79.2603C193.26 79.7564 194.001 80.2917 194.707 80.8604L194.421 81.2134Z" fill="white"/>
<path d="M166.536 78.2817L166.334 77.8797C167.143 77.4659 167.987 77.0914 168.838 76.7678L169.001 77.1914C168.161 77.511 167.334 77.8797 166.536 78.2817Z" fill="white"/>
<path d="M190.701 78.7054C189.916 78.27 189.102 77.8739 188.281 77.5209L188.455 77.1072C189.293 77.4602 190.122 77.8661 190.918 78.3112L190.701 78.7054Z" fill="white"/>
<path d="M205.427 93.5638C204.561 93.3853 203.657 93.3579 202.776 93.4814L202.713 93.0324C203.643 92.9029 204.6 92.9323 205.518 93.1186L205.427 93.5638ZM198.79 95.2835L198.493 94.9404C199.209 94.3246 200.017 93.8422 200.9 93.503L201.062 93.9246C200.227 94.2462 199.462 94.7031 198.79 95.2835ZM209.293 95.6169C208.926 95.262 208.524 94.9404 208.092 94.6619C207.777 94.456 207.447 94.2717 207.108 94.1148L207.298 93.7069C207.657 93.8716 208.006 94.0658 208.339 94.2815C208.796 94.5756 209.222 94.9188 209.608 95.2933L209.293 95.6169ZM196.409 98.9604L195.974 98.8309C196.199 98.0779 196.532 97.3602 196.964 96.6974C197.046 96.566 197.133 96.4425 197.221 96.3189L197.586 96.5856C197.503 96.7033 197.421 96.8209 197.342 96.9406C196.933 97.57 196.617 98.2485 196.409 98.9604ZM211.434 99.4369C211.234 98.5642 210.889 97.7446 210.408 96.9915L210.791 96.7503C211.299 97.5445 211.663 98.4152 211.873 99.3349L211.434 99.4369ZM195.958 103.463C195.723 102.643 195.615 101.796 195.636 100.945C195.64 100.857 195.642 100.766 195.65 100.678L196.101 100.704C196.093 100.79 196.091 100.872 196.087 100.957C196.066 101.761 196.168 102.565 196.391 103.339L195.958 103.463ZM211.601 103.957L211.175 103.806C211.454 103.033 211.606 102.221 211.628 101.398C211.632 101.331 211.632 101.264 211.632 101.196L212.083 101.198C212.083 101.268 212.083 101.339 212.083 101.412C212.057 102.284 211.895 103.141 211.601 103.957ZM198.446 107.371C197.733 106.751 197.138 106.018 196.678 105.192L197.076 104.973C197.509 105.751 198.068 106.443 198.743 107.032L198.446 107.371ZM208.849 107.716L208.577 107.357C209.283 106.818 209.885 106.165 210.375 105.412L210.767 105.637L210.751 105.665C210.238 106.453 209.596 107.147 208.849 107.716ZM202.651 109.314C201.719 109.177 200.821 108.881 199.99 108.434L200.201 108.038C200.99 108.455 201.837 108.74 202.717 108.865L202.651 109.314ZM204.523 109.373L204.488 108.926C205.376 108.853 206.241 108.628 207.053 108.263L207.241 108.675C206.377 109.063 205.467 109.299 204.523 109.373Z" fill="white"/>
<path d="M179.576 118.84C179.135 118.748 178.68 118.697 178.229 118.686C178.227 118.686 178.227 118.686 178.227 118.686C177.793 118.672 177.356 118.697 176.927 118.758L176.864 118.311C177.319 118.248 177.782 118.223 178.239 118.231H178.243C178.719 118.248 179.198 118.301 179.668 118.397L179.576 118.84ZM172.936 120.562L172.642 120.219C173.356 119.603 174.166 119.121 175.048 118.78L175.211 119.203C174.377 119.523 173.613 119.98 172.936 120.562ZM183.439 120.896C183.076 120.539 182.674 120.219 182.243 119.937C181.927 119.733 181.598 119.548 181.259 119.393L181.445 118.984C181.804 119.148 182.157 119.342 182.486 119.558C182.943 119.854 183.369 120.197 183.757 120.572L183.439 120.896ZM170.556 124.239L170.124 124.108C170.346 123.355 170.679 122.639 171.111 121.974C171.193 121.845 171.283 121.721 171.371 121.598L171.736 121.864C171.652 121.98 171.569 122.098 171.489 122.219C171.083 122.847 170.769 123.527 170.556 124.239ZM185.582 124.714C185.382 123.841 185.035 123.019 184.557 122.27L184.941 122.025C185.445 122.819 185.81 123.692 186.024 124.614L185.582 124.714ZM170.108 128.739C169.869 127.922 169.761 127.073 169.785 126.222C169.787 126.129 169.791 126.041 169.797 125.953L170.248 125.98C170.244 126.063 170.242 126.149 170.238 126.235C170.216 127.039 170.318 127.841 170.54 128.616L170.108 128.739ZM185.747 129.236L185.322 129.083C185.602 128.312 185.753 127.498 185.777 126.677C185.779 126.61 185.779 126.539 185.779 126.473L186.234 126.477C186.234 126.547 186.234 126.62 186.23 126.688C186.204 127.559 186.043 128.42 185.747 129.236ZM172.593 132.648C171.883 132.026 171.289 131.297 170.828 130.471L171.222 130.251C171.658 131.03 172.218 131.722 172.893 132.308L172.593 132.648ZM182.998 132.995L182.725 132.636C183.429 132.097 184.035 131.442 184.526 130.689L184.916 130.914L184.902 130.938C184.384 131.73 183.743 132.422 182.998 132.995ZM176.801 134.591C175.868 134.456 174.972 134.16 174.136 133.712L174.35 133.312C175.136 133.734 175.985 134.013 176.864 134.144L176.801 134.591ZM178.674 134.652L178.635 134.201C179.525 134.128 180.388 133.905 181.202 133.54L181.388 133.954C180.527 134.34 179.613 134.575 178.674 134.652Z" fill="white"/>
<path d="M154.358 93.2617C153.491 93.0813 152.585 93.0519 151.707 93.1794L151.646 92.7323C152.577 92.5989 153.532 92.6303 154.446 92.8166L154.358 93.2617ZM147.72 94.9795L147.424 94.6403C148.138 94.0245 148.948 93.5402 149.83 93.2009L149.993 93.6245C149.157 93.9441 148.393 94.401 147.72 94.9795ZM158.221 95.3149C157.86 94.9599 157.456 94.6364 157.025 94.3579C156.707 94.154 156.378 93.9696 156.037 93.8147L156.227 93.4049C156.586 93.5696 156.937 93.7598 157.272 93.9794C157.727 94.2736 158.154 94.6167 158.539 94.9913L158.221 95.3149ZM145.337 98.6563L144.902 98.5289C145.128 97.7759 145.461 97.0582 145.894 96.3914C145.977 96.2659 146.065 96.1385 146.151 96.0169L146.52 96.2836C146.434 96.3993 146.351 96.5189 146.271 96.6405C145.865 97.268 145.551 97.9445 145.337 98.6563ZM160.364 99.1348C160.164 98.2622 159.819 97.4405 159.339 96.6895L159.723 96.4463C160.227 97.2405 160.594 98.1092 160.806 99.0329L160.364 99.1348ZM144.886 103.161C144.653 102.341 144.545 101.494 144.567 100.641C144.569 100.551 144.573 100.462 144.579 100.374L145.03 100.398C145.024 100.484 145.02 100.57 145.018 100.653C144.998 101.459 145.1 102.259 145.322 103.033L144.886 103.161ZM160.529 103.657L160.104 103.504C160.384 102.729 160.535 101.919 160.559 101.098C160.56 101.027 160.56 100.96 160.56 100.894H161.015C161.015 100.966 161.011 101.037 161.011 101.108C160.986 101.98 160.825 102.837 160.529 103.657ZM147.377 107.069C146.665 106.447 146.071 105.714 145.612 104.89L146.004 104.669C146.44 105.447 147.002 106.141 147.671 106.726L147.377 107.069ZM157.78 107.412L157.507 107.057C158.211 106.516 158.819 105.863 159.307 105.11L159.698 105.335L159.682 105.361C159.168 106.151 158.527 106.843 157.78 107.412ZM151.583 109.012C150.65 108.875 149.754 108.577 148.92 108.132L149.132 107.732C149.92 108.155 150.767 108.434 151.646 108.565L151.583 109.012ZM153.456 109.073L153.419 108.622C154.307 108.547 155.17 108.326 155.984 107.961L156.17 108.373C155.311 108.761 154.395 108.997 153.456 109.073Z" fill="white"/>
<path d="M180.494 68.5928C179.629 68.4163 178.725 68.3869 177.845 68.5104L177.782 68.0672C178.711 67.9339 179.67 67.9652 180.584 68.1515L180.494 68.5928ZM173.854 70.3145L173.562 69.9713C174.278 69.3575 175.085 68.8732 175.968 68.5339L176.131 68.9555C175.295 69.2752 174.53 69.734 173.854 70.3145ZM184.359 70.6498C183.994 70.291 183.592 69.9713 183.163 69.6909C182.845 69.4889 182.516 69.3046 182.176 69.1458L182.367 68.7359C182.725 68.9006 183.074 69.0948 183.408 69.3105C183.865 69.6085 184.29 69.9497 184.677 70.3263L184.359 70.6498ZM171.477 73.9913L171.042 73.8599C171.267 73.1089 171.597 72.3912 172.028 71.7264C172.115 71.5989 172.201 71.4734 172.289 71.3518L172.654 71.6166C172.568 71.7323 172.489 71.8499 172.411 71.9754C172.001 72.599 171.685 73.2795 171.477 73.9913ZM186.502 74.4659C186.3 73.5971 185.957 72.7755 185.477 72.0225L185.859 71.7813C186.367 72.5755 186.728 73.4442 186.941 74.3658L186.502 74.4659ZM171.026 78.4917C170.787 77.674 170.683 76.8249 170.705 75.9738C170.705 75.8856 170.711 75.7974 170.718 75.7072L171.169 75.7326C171.162 75.8189 171.16 75.9013 171.156 75.9876C171.134 76.7916 171.236 77.5936 171.46 78.3682L171.026 78.4917ZM186.667 78.9918L186.243 78.8388C186.522 78.0642 186.675 77.2544 186.696 76.4288C186.7 76.3621 186.7 76.2954 186.7 76.2288H187.151C187.151 76.2994 187.151 76.3719 187.147 76.4406C187.126 77.3151 186.963 78.1721 186.667 78.9918ZM173.515 82.3999C172.801 81.7822 172.207 81.0488 171.746 80.2233L172.144 80.0036C172.577 80.7821 173.136 81.4763 173.811 82.0607L173.515 82.3999ZM183.916 82.747L183.643 82.3882C184.347 81.8509 184.953 81.1939 185.443 80.4449L185.835 80.6704L185.82 80.6919C185.306 81.4861 184.665 82.1784 183.916 82.747ZM177.719 84.3472C176.786 84.208 175.889 83.9118 175.054 83.4647L175.27 83.0667C176.058 83.4902 176.901 83.7687 177.786 83.9001L177.719 84.3472ZM179.592 84.408L179.556 83.9569C180.445 83.8824 181.31 83.6608 182.121 83.2961L182.306 83.7059C181.445 84.0923 180.531 84.3315 179.592 84.408Z" fill="white"/>
<path d="M281.213 376.665L281.062 385.23C280.988 389.288 262.476 392.243 239.719 391.833C216.958 391.425 198.57 387.801 198.643 383.742L198.799 375.177L281.213 376.665Z" fill="#F49F4A"/>
<path d="M198.799 375.176C198.725 379.234 217.115 382.856 239.874 383.267C262.631 383.677 281.14 380.722 281.213 376.665C281.288 372.604 262.898 368.982 240.139 368.572C217.382 368.162 198.872 371.117 198.799 375.176Z" fill="#F2CA4C"/>
<path d="M273.581 387.283C273.769 387.287 273.924 387.138 273.928 386.95L274.01 382.35C274.014 382.159 273.863 382.008 273.677 382.004C273.489 382.001 273.338 382.15 273.334 382.338L273.248 386.938C273.246 387.125 273.395 387.281 273.581 387.283Z" fill="white"/>
<path d="M260.45 389.348C260.639 389.35 260.794 389.201 260.797 389.015L260.88 384.414C260.882 384.226 260.733 384.071 260.546 384.067C260.362 384.065 260.205 384.214 260.203 384.401L260.121 389.001C260.115 389.189 260.266 389.344 260.45 389.348Z" fill="white"/>
<path d="M247.392 390.262C247.581 390.266 247.735 390.117 247.739 389.929L247.822 385.328C247.824 385.142 247.675 384.985 247.488 384.983C247.3 384.979 247.149 385.128 247.141 385.317L247.063 389.917C247.059 390.103 247.206 390.258 247.392 390.262Z" fill="white"/>
<path d="M234.124 390.025C234.313 390.027 234.467 389.878 234.471 389.691L234.554 385.091C234.558 384.901 234.407 384.748 234.22 384.744C234.032 384.742 233.881 384.891 233.877 385.077L233.791 389.678C233.789 389.866 233.938 390.017 234.124 390.025Z" fill="white"/>
<path d="M220.107 388.925C220.296 388.929 220.449 388.78 220.451 388.591L220.533 383.991C220.541 383.805 220.388 383.65 220.203 383.646C220.013 383.642 219.86 383.791 219.858 383.979L219.774 388.584C219.772 388.77 219.921 388.923 220.107 388.925Z" fill="white"/>
<path d="M206.047 385.907C206.232 385.909 206.386 385.76 206.39 385.574L206.473 380.973C206.475 380.785 206.326 380.63 206.141 380.626C205.955 380.624 205.8 380.773 205.796 380.959L205.714 385.564C205.71 385.748 205.857 385.903 206.047 385.907Z" fill="white"/>
<path d="M227.916 370.921C231.754 370.992 235.601 372.151 241.56 375.157C245.837 377.308 247.249 377.794 248.824 377.824C249.936 377.841 250.755 377.506 248.838 376.224C246.557 374.7 244.551 374.41 243.335 374.249L239.099 371.417C242.129 371.617 246.216 372.547 250.602 375.039L252.91 375.08L256.456 377.451L254.116 377.41C256.307 379.292 256.244 380.732 252.589 380.665C249.206 380.604 245.488 379.579 238.697 376.178C234.975 374.312 233.338 373.778 231.569 373.747C230.128 373.721 229.557 374.168 231.759 375.645C233.544 376.835 235.907 377.651 238.107 377.916L242.339 380.742C238.623 380.526 234.103 379.153 230.024 376.839L227.128 376.784L223.553 374.398L226.449 374.449C223.763 372.27 223.849 370.849 227.916 370.921Z" fill="#F49F4A"/>
<path d="M288.078 365.844L287.925 374.41C287.849 378.467 269.339 381.426 246.582 381.014C223.823 380.605 205.433 376.983 205.508 372.925L205.659 364.36L288.078 365.844Z" fill="#F49F4A"/>
<path d="M205.659 364.36C205.586 368.417 223.978 372.039 246.735 372.449C269.496 372.861 288.004 369.901 288.078 365.844C288.151 361.787 269.759 358.165 247.002 357.755C224.241 357.345 205.733 360.301 205.659 364.36Z" fill="#F2CA4C"/>
<path d="M280.446 376.465C280.633 376.467 280.788 376.318 280.791 376.131L280.874 371.531C280.878 371.343 280.729 371.188 280.54 371.184C280.354 371.182 280.197 371.331 280.195 371.517L280.113 376.122C280.109 376.306 280.258 376.461 280.446 376.465Z" fill="white"/>
<path d="M267.314 378.532C267.502 378.532 267.657 378.385 267.661 378.194L267.743 373.594C267.747 373.408 267.598 373.251 267.41 373.249C267.221 373.249 267.07 373.398 267.067 373.582L266.98 378.185C266.978 378.373 267.127 378.526 267.314 378.532Z" fill="white"/>
<path d="M254.256 379.446C254.444 379.449 254.599 379.3 254.603 379.112L254.685 374.51C254.689 374.325 254.54 374.169 254.352 374.167C254.165 374.163 254.009 374.312 254.007 374.5L253.922 379.1C253.92 379.287 254.069 379.442 254.256 379.446Z" fill="white"/>
<path d="M240.99 379.204C241.176 379.208 241.331 379.059 241.335 378.871L241.417 374.27C241.421 374.084 241.272 373.927 241.084 373.925C240.898 373.921 240.741 374.07 240.739 374.259L240.656 378.861C240.652 379.045 240.801 379.2 240.99 379.204Z" fill="white"/>
<path d="M226.969 378.108C227.157 378.112 227.312 377.963 227.316 377.775L227.398 373.176C227.4 372.984 227.251 372.833 227.065 372.829C226.877 372.825 226.722 372.976 226.718 373.163L226.639 377.763C226.633 377.951 226.782 378.106 226.969 378.108Z" fill="white"/>
<path d="M212.909 375.09C213.095 375.092 213.25 374.943 213.254 374.757L213.336 370.156C213.34 369.966 213.191 369.813 213.003 369.809C212.816 369.807 212.663 369.956 212.659 370.141L212.577 374.743C212.571 374.931 212.72 375.084 212.909 375.09Z" fill="white"/>
<path d="M234.779 360.104C238.617 360.175 242.464 361.33 248.422 364.34C252.699 366.493 254.111 366.978 255.689 367.007C256.799 367.027 257.619 366.685 255.701 365.403C253.418 363.879 251.414 363.591 250.198 363.428L245.965 360.601C248.992 360.797 253.079 361.73 257.464 364.222L259.774 364.264L263.321 366.634L260.982 366.591C263.168 368.474 263.107 369.915 259.454 369.849C256.07 369.788 252.352 368.762 245.561 365.362C241.841 363.495 240.199 362.96 238.433 362.926C236.991 362.901 236.421 363.352 238.627 364.826C240.407 366.019 242.766 366.833 244.97 367.095L249.198 369.925C245.488 369.705 240.966 368.337 236.887 366.019L233.991 365.968L230.416 363.577L233.312 363.632C230.626 361.454 230.712 360.032 234.779 360.104Z" fill="#F49F4A"/>
<path d="M277.878 357.226L277.723 365.793C277.648 369.85 259.139 372.808 236.38 372.394C213.622 371.984 195.231 368.362 195.303 364.305L195.46 355.739L277.878 357.226Z" fill="#F49F4A"/>
<path d="M195.46 355.739C195.385 359.797 213.775 363.418 236.534 363.828C259.291 364.238 277.805 361.285 277.877 357.226C277.95 353.169 259.558 349.545 236.799 349.135C214.042 348.727 195.532 351.682 195.46 355.739Z" fill="#F2CA4C"/>
<path d="M270.241 367.844C270.43 367.848 270.585 367.699 270.589 367.515L270.671 362.911C270.673 362.724 270.524 362.571 270.338 362.566C270.149 362.562 269.996 362.711 269.99 362.899L269.912 367.499C269.908 367.69 270.055 367.842 270.241 367.844Z" fill="white"/>
<path d="M257.115 369.911C257.297 369.915 257.454 369.762 257.456 369.578L257.54 364.976C257.546 364.787 257.393 364.634 257.209 364.632C257.023 364.628 256.866 364.778 256.864 364.966L256.781 369.566C256.777 369.752 256.923 369.909 257.115 369.911Z" fill="white"/>
<path d="M244.053 370.825C244.243 370.829 244.396 370.68 244.398 370.492L244.482 365.893C244.484 365.701 244.339 365.55 244.151 365.546C243.961 365.542 243.808 365.693 243.806 365.88L243.719 370.48C243.715 370.668 243.868 370.823 244.053 370.825Z" fill="white"/>
<path d="M230.785 370.584C230.973 370.588 231.128 370.439 231.132 370.254L231.214 365.652C231.216 365.464 231.067 365.311 230.881 365.309C230.696 365.305 230.54 365.452 230.538 365.638L230.455 370.243C230.449 370.429 230.6 370.582 230.785 370.584Z" fill="white"/>
<path d="M216.768 369.49C216.956 369.492 217.107 369.343 217.111 369.156L217.197 364.552C217.197 364.368 217.05 364.213 216.864 364.209C216.676 364.207 216.521 364.356 216.517 364.542L216.434 369.143C216.432 369.331 216.581 369.486 216.768 369.49Z" fill="white"/>
<path d="M202.708 366.47C202.894 366.474 203.047 366.325 203.051 366.136L203.135 361.534C203.139 361.35 202.99 361.193 202.802 361.191C202.615 361.187 202.459 361.336 202.457 361.524L202.374 366.125C202.37 366.311 202.519 366.468 202.708 366.47Z" fill="white"/>
<path d="M224.578 351.486C228.414 351.554 232.261 352.713 238.221 355.72C242.498 357.873 243.91 358.359 245.484 358.386C246.596 358.406 247.416 358.067 245.498 356.784C243.217 355.261 241.211 354.97 239.995 354.812L235.76 351.98C238.789 352.176 242.874 353.11 247.263 355.602L249.571 355.643L253.12 358.016L250.777 357.975C252.967 359.853 252.904 361.293 249.253 361.228C245.865 361.165 242.149 360.144 235.358 356.743C231.636 354.876 229.998 354.343 228.23 354.31C226.788 354.282 226.216 354.729 228.424 356.206C230.204 357.4 232.565 358.212 234.766 358.477L238.999 361.304C235.283 361.085 230.765 359.718 226.682 357.4L223.788 357.349L220.213 354.959L223.108 355.012C220.423 352.835 220.507 351.409 224.578 351.486Z" fill="#F49F4A"/>
<path d="M289.885 346.389L289.732 354.955C289.659 359.012 271.147 361.967 248.39 361.56C225.629 361.15 207.241 357.526 207.314 353.469L207.469 344.903L289.885 346.389Z" fill="#F49F4A"/>
<path d="M207.469 344.903C207.396 348.96 225.784 352.584 248.545 352.994C271.302 353.402 289.812 350.447 289.885 346.389C289.961 342.332 271.569 338.71 248.808 338.3C226.051 337.887 207.542 340.844 207.469 344.903Z" fill="#F2CA4C"/>
<path d="M282.252 357.01C282.439 357.012 282.596 356.863 282.598 356.677L282.68 352.076C282.684 351.886 282.535 351.733 282.347 351.729C282.16 351.727 282.007 351.876 282.005 352.062L281.919 356.663C281.915 356.851 282.064 357.006 282.252 357.01Z" fill="white"/>
<path d="M269.122 359.073C269.308 359.077 269.463 358.926 269.467 358.74L269.549 354.139C269.553 353.951 269.404 353.796 269.216 353.794C269.032 353.79 268.877 353.939 268.873 354.127L268.79 358.726C268.788 358.914 268.937 359.069 269.122 359.073Z" fill="white"/>
<path d="M256.064 359.987C256.25 359.993 256.407 359.842 256.409 359.657L256.491 355.053C256.495 354.867 256.346 354.714 256.158 354.71C255.971 354.708 255.818 354.853 255.813 355.041L255.732 359.644C255.73 359.832 255.875 359.985 256.064 359.987Z" fill="white"/>
<path d="M242.796 359.75C242.982 359.752 243.139 359.603 243.141 359.416L243.223 354.816C243.227 354.628 243.078 354.473 242.89 354.469C242.704 354.467 242.551 354.616 242.549 354.802L242.462 359.403C242.458 359.591 242.611 359.746 242.796 359.75Z" fill="white"/>
<path d="M228.779 358.651C228.965 358.653 229.118 358.508 229.122 358.318L229.204 353.717C229.208 353.529 229.057 353.374 228.875 353.37C228.683 353.368 228.532 353.519 228.528 353.704L228.445 358.308C228.439 358.494 228.59 358.647 228.779 358.651Z" fill="white"/>
<path d="M214.717 355.631C214.901 355.635 215.058 355.488 215.06 355.298L215.142 350.698C215.15 350.509 214.997 350.354 214.813 350.354C214.622 350.349 214.469 350.498 214.466 350.686L214.383 355.288C214.381 355.473 214.526 355.627 214.717 355.631Z" fill="white"/>
<path d="M236.589 340.646C240.423 340.716 244.272 341.875 250.232 344.881C254.507 347.035 255.92 347.519 257.495 347.548C258.605 347.57 259.425 347.231 257.507 345.948C255.228 344.425 253.222 344.136 252.006 343.973L247.771 341.142C250.798 341.342 254.885 342.271 259.272 344.764L261.58 344.805L265.131 347.178L262.788 347.135C264.978 349.019 264.913 350.456 261.264 350.39C257.876 350.329 254.158 349.303 247.367 345.907C243.647 344.036 242.007 343.503 240.241 343.471C238.799 343.446 238.227 343.893 240.433 345.37C242.217 346.56 244.576 347.378 246.776 347.64L251.008 350.468C247.294 350.251 242.774 348.882 238.693 346.564L235.799 346.513L232.226 344.123L235.118 344.177C232.432 341.995 232.518 340.573 236.589 340.646Z" fill="#F49F4A"/>
<path d="M193.37 353.561C193.519 353.565 193.662 353.494 193.75 353.365C195.95 350.153 203.9 348.148 203.984 348.129C204.225 348.068 204.371 347.825 204.31 347.58C204.251 347.339 204.006 347.194 203.765 347.252C203.421 347.335 195.395 349.36 193.009 352.853C192.866 353.061 192.917 353.339 193.122 353.482C193.199 353.533 193.283 353.559 193.37 353.561Z" fill="#F49F4A"/>
<path d="M291.634 356.139C291.885 356.145 292.091 355.945 292.095 355.698L292.263 346.431C292.265 346.184 292.069 345.978 291.818 345.974C291.567 345.968 291.361 346.168 291.357 346.415L291.189 355.679C291.187 355.93 291.383 356.135 291.634 356.139Z" fill="#F49F4A"/>
<path d="M207.345 333.618L207.5 342.183C207.575 346.241 226.08 349.2 248.839 348.786C271.6 348.378 289.988 344.754 289.916 340.697L289.763 332.131L207.345 333.618Z" fill="#F49F4A"/>
<path d="M289.763 332.131C289.838 336.188 271.446 339.81 248.685 340.22C225.928 340.634 207.418 337.675 207.345 333.618C207.273 329.56 225.661 325.937 248.422 325.529C271.179 325.115 289.69 328.07 289.763 332.131Z" fill="#F2CA4C"/>
<path d="M214.977 344.236C214.791 344.24 214.634 344.091 214.632 343.903L214.55 339.302C214.546 339.116 214.695 338.961 214.883 338.957C215.07 338.953 215.225 339.102 215.228 339.291L215.311 343.891C215.315 344.077 215.166 344.234 214.977 344.236Z" fill="white"/>
<path d="M228.108 346.301C227.922 346.303 227.765 346.154 227.763 345.97L227.681 341.367C227.677 341.179 227.826 341.028 228.014 341.024C228.2 341.02 228.353 341.167 228.357 341.354L228.44 345.958C228.442 346.144 228.296 346.297 228.108 346.301Z" fill="white"/>
<path d="M241.166 347.219C240.98 347.221 240.823 347.072 240.821 346.886L240.739 342.281C240.735 342.095 240.884 341.942 241.072 341.938C241.258 341.936 241.411 342.085 241.415 342.269L241.5 346.872C241.503 347.06 241.354 347.211 241.166 347.219Z" fill="white"/>
<path d="M254.434 346.978C254.248 346.98 254.091 346.831 254.089 346.644L254.007 342.044C254.003 341.856 254.152 341.701 254.34 341.697C254.526 341.695 254.679 341.844 254.685 342.03L254.768 346.631C254.771 346.819 254.622 346.974 254.434 346.978Z" fill="white"/>
<path d="M268.455 345.882C268.265 345.885 268.112 345.736 268.108 345.548L268.026 340.944C268.022 340.761 268.169 340.605 268.359 340.603C268.543 340.599 268.698 340.744 268.702 340.936L268.785 345.536C268.79 345.723 268.639 345.878 268.455 345.882Z" fill="white"/>
<path d="M282.515 342.862C282.329 342.865 282.172 342.716 282.17 342.528L282.088 337.926C282.084 337.738 282.233 337.587 282.421 337.583C282.607 337.579 282.76 337.726 282.762 337.916L282.848 342.516C282.852 342.703 282.699 342.86 282.515 342.862Z" fill="white"/>
<path d="M260.644 327.874C256.807 327.945 252.957 329.104 246.998 332.11C242.723 334.265 241.309 334.747 239.735 334.777C238.623 334.798 237.805 334.459 239.723 333.176C242.005 331.653 244.008 331.363 245.223 331.202L249.459 328.372C246.431 328.57 242.345 329.5 237.956 331.994L235.648 332.033L232.099 334.404L234.442 334.363C232.256 336.245 232.316 337.685 235.966 337.62C239.354 337.557 243.072 336.536 249.863 333.135C253.583 331.268 255.224 330.735 256.989 330.7C258.431 330.674 259.003 331.121 256.799 332.598C255.015 333.792 252.654 334.604 250.453 334.869L246.222 337.696C249.936 337.477 254.456 336.11 258.536 333.792L261.431 333.741L265.006 331.351L262.111 331.404C264.798 329.223 264.712 327.801 260.644 327.874Z" fill="#F49F4A"/>
<path d="M200.482 322.801L200.637 331.366C200.709 335.424 219.219 338.379 241.976 337.969C264.737 337.557 283.129 333.935 283.054 329.878L282.899 321.312L200.482 322.801Z" fill="#F49F4A"/>
<path d="M282.899 321.313C282.972 325.37 264.58 328.992 241.821 329.402C219.064 329.813 200.554 326.858 200.482 322.801C200.409 318.744 218.797 315.12 241.556 314.708C264.317 314.298 282.827 317.253 282.899 321.313Z" fill="#F2CA4C"/>
<path d="M208.114 333.42C207.926 333.424 207.775 333.275 207.771 333.086L207.685 328.484C207.683 328.3 207.832 328.145 208.018 328.141C208.206 328.137 208.361 328.284 208.365 328.474L208.447 333.074C208.449 333.261 208.3 333.418 208.114 333.42Z" fill="white"/>
<path d="M221.245 335.485C221.058 335.486 220.902 335.337 220.9 335.151L220.815 330.551C220.813 330.362 220.962 330.208 221.149 330.204C221.337 330.202 221.492 330.351 221.496 330.537L221.578 335.137C221.582 335.326 221.433 335.481 221.245 335.485Z" fill="white"/>
<path d="M234.303 336.398C234.114 336.402 233.96 336.253 233.958 336.065L233.873 331.465C233.871 331.278 234.02 331.121 234.207 331.119C234.395 331.116 234.55 331.265 234.554 331.453L234.636 336.053C234.64 336.24 234.491 336.394 234.303 336.398Z" fill="white"/>
<path d="M247.571 336.161C247.382 336.163 247.231 336.014 247.228 335.828L247.141 331.223C247.139 331.039 247.288 330.884 247.475 330.88C247.663 330.878 247.818 331.027 247.822 331.214L247.904 335.814C247.906 336.002 247.757 336.157 247.571 336.161Z" fill="white"/>
<path d="M261.59 335.061C261.403 335.065 261.248 334.916 261.244 334.728L261.162 330.127C261.158 329.941 261.307 329.786 261.495 329.782C261.682 329.778 261.835 329.927 261.839 330.115L261.923 334.716C261.927 334.902 261.778 335.059 261.59 335.061Z" fill="white"/>
<path d="M275.652 332.043C275.463 332.045 275.309 331.896 275.305 331.71L275.222 327.109C275.22 326.921 275.369 326.766 275.556 326.762C275.744 326.76 275.897 326.909 275.903 327.095L275.985 331.696C275.985 331.884 275.838 332.039 275.652 332.043Z" fill="white"/>
<path d="M253.781 317.057C249.941 317.128 246.094 318.287 240.139 321.293C235.858 323.444 234.448 323.931 232.871 323.96C231.759 323.978 230.94 323.638 232.858 322.36C235.14 320.832 237.144 320.546 238.364 320.385L242.596 317.553C239.57 317.753 235.481 318.683 231.097 321.175L228.785 321.217L225.239 323.587L227.579 323.546C225.39 325.429 225.455 326.868 229.106 326.801C232.491 326.741 236.207 325.715 242.998 322.315C246.72 320.448 248.361 319.914 250.126 319.883C251.567 319.858 252.142 320.305 249.936 321.779C248.151 322.972 245.792 323.787 243.59 324.048L239.36 326.878C243.072 326.658 247.592 325.289 251.673 322.976L254.567 322.921L258.142 320.534L255.25 320.585C257.932 318.406 257.848 316.985 253.781 317.057Z" fill="#F49F4A"/>
<path d="M210.685 314.181L210.838 322.746C210.91 326.803 229.42 329.76 252.181 329.351C274.938 328.941 293.33 325.319 293.255 321.258L293.1 312.692L210.685 314.181Z" fill="#F49F4A"/>
<path d="M293.101 312.692C293.173 316.749 274.785 320.371 252.024 320.785C229.267 321.195 210.757 318.238 210.685 314.181C210.612 310.123 229 306.501 251.761 306.088C274.518 305.68 293.028 308.635 293.101 312.692Z" fill="#F2CA4C"/>
<path d="M218.317 324.801C218.131 324.803 217.974 324.654 217.972 324.468L217.889 319.867C217.886 319.677 218.035 319.524 218.223 319.52C218.409 319.518 218.562 319.667 218.568 319.852L218.65 324.454C218.654 324.642 218.505 324.795 218.317 324.801Z" fill="white"/>
<path d="M231.449 326.864C231.257 326.868 231.106 326.719 231.102 326.531L231.02 321.93C231.014 321.744 231.165 321.587 231.353 321.585C231.54 321.581 231.693 321.73 231.697 321.918L231.779 326.519C231.783 326.705 231.632 326.862 231.449 326.864Z" fill="white"/>
<path d="M244.506 327.778C244.319 327.782 244.164 327.633 244.161 327.444L244.078 322.844C244.074 322.658 244.221 322.503 244.412 322.499C244.596 322.495 244.751 322.644 244.755 322.832L244.837 327.433C244.839 327.623 244.694 327.776 244.506 327.778Z" fill="white"/>
<path d="M257.772 327.541C257.587 327.545 257.43 327.396 257.429 327.207L257.346 322.607C257.342 322.417 257.491 322.264 257.676 322.262C257.866 322.258 258.019 322.407 258.023 322.595L258.105 327.196C258.107 327.382 257.962 327.537 257.772 327.541Z" fill="white"/>
<path d="M271.791 326.443C271.606 326.444 271.451 326.295 271.447 326.109L271.365 321.509C271.363 321.32 271.512 321.166 271.696 321.162C271.883 321.16 272.038 321.309 272.042 321.495L272.124 326.099C272.128 326.284 271.979 326.439 271.791 326.443Z" fill="white"/>
<path d="M285.853 323.423C285.665 323.426 285.514 323.277 285.51 323.089L285.427 318.489C285.423 318.302 285.57 318.146 285.757 318.144C285.945 318.14 286.1 318.289 286.104 318.477L286.186 323.079C286.188 323.264 286.039 323.421 285.853 323.423Z" fill="white"/>
<path d="M263.984 308.437C260.143 308.508 256.297 309.667 250.34 312.673C246.063 314.826 244.649 315.312 243.074 315.34C241.96 315.359 241.145 315.022 243.062 313.739C245.341 312.216 247.349 311.928 248.565 311.765L252.799 308.933C249.771 309.133 245.682 310.063 241.298 312.555L238.99 312.596L235.442 314.969L237.782 314.928C235.591 316.81 235.656 318.248 239.307 318.181C242.694 318.12 246.412 317.095 253.199 313.696C256.923 311.829 258.562 311.296 260.331 311.263C261.772 311.237 262.343 311.686 260.137 313.163C258.352 314.353 255.993 315.169 253.793 315.432L249.561 318.258C253.273 318.042 257.797 316.671 261.876 314.355L264.772 314.302L268.343 311.914L265.451 311.965C268.133 309.788 268.051 308.364 263.984 308.437Z" fill="#F49F4A"/>
<path d="M198.672 303.342L198.827 311.912C198.903 315.969 217.409 318.924 240.17 318.514C262.931 318.103 281.319 314.479 281.246 310.421L281.093 301.856L198.672 303.342Z" fill="#F49F4A"/>
<path d="M281.093 301.856C281.166 305.913 262.774 309.537 240.015 309.945C217.258 310.359 198.748 307.4 198.672 303.342C198.601 299.285 216.991 295.663 239.75 295.253C262.507 294.843 281.017 297.799 281.093 301.856Z" fill="#F2CA4C"/>
<path d="M206.308 313.963C206.12 313.965 205.965 313.816 205.961 313.631L205.879 309.029C205.875 308.841 206.026 308.686 206.212 308.682C206.4 308.68 206.555 308.829 206.559 309.015L206.641 313.616C206.643 313.806 206.494 313.959 206.308 313.963Z" fill="white"/>
<path d="M219.439 316.028C219.25 316.032 219.095 315.879 219.092 315.696L219.009 311.092C219.007 310.904 219.156 310.753 219.343 310.749C219.531 310.745 219.684 310.896 219.686 311.082L219.772 315.683C219.772 315.871 219.625 316.022 219.439 316.028Z" fill="white"/>
<path d="M232.497 316.944C232.308 316.945 232.154 316.796 232.15 316.61L232.067 312.01C232.065 311.821 232.214 311.667 232.401 311.663C232.589 311.661 232.74 311.81 232.744 311.996L232.83 316.596C232.832 316.785 232.683 316.94 232.497 316.944Z" fill="white"/>
<path d="M245.765 316.702C245.576 316.708 245.422 316.559 245.418 316.371L245.335 311.769C245.331 311.58 245.482 311.429 245.669 311.425C245.853 311.421 246.008 311.569 246.012 311.755L246.094 316.359C246.1 316.545 245.949 316.698 245.765 316.702Z" fill="white"/>
<path d="M259.784 315.606C259.597 315.61 259.44 315.461 259.438 315.273L259.356 310.672C259.352 310.486 259.497 310.329 259.689 310.327C259.872 310.323 260.029 310.472 260.031 310.661L260.115 315.261C260.121 315.447 259.968 315.604 259.784 315.606Z" fill="white"/>
<path d="M273.846 312.586C273.655 312.59 273.502 312.441 273.499 312.255L273.416 307.651C273.414 307.466 273.563 307.311 273.75 307.307C273.938 307.304 274.089 307.455 274.093 307.641L274.175 312.241C274.179 312.429 274.03 312.584 273.846 312.586Z" fill="white"/>
<path d="M251.973 297.603C248.136 297.671 244.288 298.83 238.329 301.838C234.052 303.989 232.64 304.476 231.065 304.505C229.953 304.523 229.134 304.184 231.052 302.905C233.334 301.377 235.338 301.087 236.554 300.93L240.79 298.097C237.76 298.295 233.673 299.228 229.287 301.721L226.979 301.762L223.429 304.133L225.773 304.091C223.584 305.97 223.645 307.413 227.296 307.347C230.683 307.282 234.401 306.26 241.192 302.86C244.914 300.993 246.555 300.46 248.32 300.428C249.761 300.399 250.332 300.846 248.126 302.323C246.345 303.517 243.982 304.329 241.782 304.593L237.55 307.421C241.264 307.203 245.786 305.835 249.865 303.517L252.761 303.466L256.336 301.079L253.44 301.13C256.126 298.952 256.04 297.526 251.973 297.603Z" fill="#F49F4A"/>
<path d="M295.189 310.513C295.044 310.517 294.897 310.451 294.809 310.317C292.608 307.107 284.659 305.105 284.58 305.082C284.335 305.025 284.188 304.778 284.249 304.536C284.309 304.295 284.555 304.146 284.796 304.205C285.135 304.291 293.161 306.317 295.554 309.809C295.695 310.011 295.644 310.296 295.434 310.435C295.361 310.488 295.275 310.513 295.189 310.513Z" fill="#F49F4A"/>
<path d="M196.925 313.096C196.676 313.098 196.472 312.902 196.466 312.651L196.301 303.387C196.293 303.136 196.493 302.929 196.742 302.927C196.991 302.923 197.199 303.121 197.201 303.372L197.37 312.635C197.374 312.886 197.176 313.088 196.925 313.096Z" fill="#F49F4A"/>
<path d="M203.602 291.043L203.759 299.609C203.831 303.666 222.341 306.621 245.098 306.213C267.857 305.799 286.247 302.177 286.176 298.12L286.021 289.555L203.602 291.043Z" fill="#F49F4A"/>
<path d="M286.021 289.555C286.094 293.612 267.702 297.234 244.941 297.646C222.184 298.055 203.674 295.1 203.602 291.043C203.529 286.986 221.921 283.364 244.678 282.95C267.439 282.54 285.947 285.497 286.021 289.555Z" fill="#F2CA4C"/>
<path d="M211.234 301.66C211.048 301.666 210.895 301.517 210.891 301.33L210.806 296.726C210.803 296.538 210.952 296.387 211.14 296.383C211.326 296.377 211.483 296.53 211.485 296.712L211.567 301.317C211.571 301.505 211.422 301.656 211.234 301.66Z" fill="white"/>
<path d="M224.367 303.727C224.178 303.729 224.023 303.58 224.019 303.393L223.937 298.793C223.933 298.605 224.082 298.45 224.27 298.446C224.457 298.444 224.614 298.593 224.614 298.779L224.7 303.38C224.702 303.568 224.553 303.723 224.367 303.727Z" fill="white"/>
<path d="M237.423 304.64C237.236 304.644 237.081 304.495 237.077 304.307L236.995 299.707C236.991 299.52 237.14 299.363 237.328 299.361C237.515 299.357 237.672 299.507 237.674 299.695L237.756 304.295C237.76 304.481 237.611 304.638 237.423 304.64Z" fill="white"/>
<path d="M250.691 304.399C250.504 304.405 250.351 304.256 250.347 304.07L250.263 299.469C250.259 299.281 250.408 299.126 250.596 299.122C250.783 299.12 250.94 299.269 250.942 299.456L251.024 304.056C251.028 304.244 250.879 304.399 250.691 304.399Z" fill="white"/>
<path d="M264.711 303.305C264.523 303.307 264.368 303.158 264.364 302.971L264.282 298.371C264.28 298.183 264.429 298.028 264.615 298.024C264.804 298.022 264.955 298.171 264.962 298.357L265.045 302.962C265.047 303.146 264.898 303.301 264.711 303.305Z" fill="white"/>
<path d="M278.772 300.285C278.585 300.287 278.431 300.138 278.427 299.952L278.344 295.351C278.34 295.163 278.489 295.008 278.678 295.004C278.864 295.002 279.021 295.151 279.023 295.338L279.105 299.938C279.109 300.126 278.96 300.281 278.772 300.285Z" fill="white"/>
<path d="M256.901 285.299C253.063 285.37 249.214 286.529 243.259 289.535C238.98 291.688 237.57 292.172 235.991 292.202C234.881 292.222 234.062 291.88 235.979 290.602C238.262 289.074 240.266 288.788 241.482 288.627L245.716 285.795C242.69 285.995 238.601 286.925 234.217 289.417L231.907 289.458L228.359 291.829L230.699 291.788C228.512 293.669 228.575 295.11 232.226 295.043C235.611 294.983 239.329 293.957 246.12 290.557C249.84 288.69 251.481 288.156 253.248 288.125C254.689 288.1 255.26 288.547 253.056 290.023C251.273 291.214 248.914 292.029 246.71 292.29L242.482 295.12C246.192 294.904 250.714 293.531 254.793 291.217L257.689 291.163L261.264 288.776L258.372 288.827C261.054 286.648 260.968 285.227 256.901 285.299Z" fill="#F49F4A"/>
<path d="M196.739 280.223L196.893 288.788C196.968 292.847 215.476 295.802 238.233 295.393C260.994 294.983 279.386 291.361 279.313 287.304L279.156 278.734L196.739 280.223Z" fill="#F49F4A"/>
<path d="M279.156 278.734C279.231 282.795 260.841 286.417 238.082 286.827C215.321 287.239 196.811 284.28 196.739 280.222C196.666 276.165 215.058 272.543 237.815 272.133C260.574 271.722 279.084 274.681 279.156 278.734Z" fill="#F2CA4C"/>
<path d="M204.37 290.843C204.186 290.847 204.031 290.696 204.027 290.51L203.945 285.909C203.941 285.721 204.092 285.566 204.278 285.564C204.463 285.56 204.618 285.709 204.621 285.897L204.704 290.496C204.708 290.684 204.561 290.839 204.37 290.843Z" fill="white"/>
<path d="M217.501 292.906C217.315 292.91 217.162 292.763 217.158 292.576L217.074 287.972C217.07 287.786 217.219 287.633 217.407 287.631C217.593 287.623 217.75 287.772 217.752 287.96L217.835 292.563C217.839 292.751 217.69 292.904 217.501 292.906Z" fill="white"/>
<path d="M230.559 293.824C230.373 293.828 230.22 293.679 230.216 293.49L230.134 288.888C230.128 288.704 230.277 288.547 230.465 288.545C230.651 288.541 230.806 288.688 230.81 288.878L230.893 293.479C230.897 293.665 230.748 293.822 230.559 293.824Z" fill="white"/>
<path d="M243.827 293.582C243.643 293.586 243.488 293.437 243.484 293.249L243.402 288.649C243.398 288.462 243.545 288.306 243.731 288.304C243.919 288.3 244.074 288.449 244.078 288.637L244.161 293.239C244.164 293.424 244.015 293.581 243.827 293.582Z" fill="white"/>
<path d="M257.848 292.488C257.66 292.49 257.505 292.341 257.501 292.155L257.419 287.554C257.415 287.366 257.564 287.211 257.752 287.207C257.938 287.205 258.095 287.354 258.097 287.539L258.182 292.141C258.184 292.329 258.034 292.48 257.848 292.488Z" fill="white"/>
<path d="M271.908 289.465C271.722 289.468 271.569 289.321 271.563 289.135L271.481 284.531C271.477 284.344 271.626 284.191 271.814 284.189C272 284.182 272.155 284.335 272.159 284.523L272.242 289.121C272.246 289.31 272.096 289.465 271.908 289.465Z" fill="white"/>
<path d="M250.038 274.483C246.198 274.549 242.354 275.708 236.395 278.718C232.118 280.868 230.706 281.356 229.128 281.385C228.016 281.405 227.198 281.064 229.118 279.781C231.399 278.258 233.405 277.969 234.62 277.807L238.856 274.975C235.826 275.175 231.738 276.108 227.353 278.597L225.045 278.642L221.496 281.015L223.835 280.97C221.649 282.852 221.711 284.289 225.363 284.227C228.747 284.164 232.467 283.14 239.256 279.74C242.976 277.873 244.617 277.338 246.386 277.306C247.828 277.281 248.398 277.73 246.192 279.205C244.408 280.397 242.049 281.211 239.848 281.474L235.617 284.303C239.329 284.084 243.849 282.715 247.931 280.397L250.824 280.348L254.399 277.956L251.506 278.01C254.189 275.832 254.107 274.406 250.038 274.483Z" fill="#F49F4A"/>
<path d="M206.941 271.604L207.098 280.17C207.171 284.231 225.68 287.186 248.437 286.772C271.196 286.364 289.586 282.74 289.512 278.683L289.361 270.118L206.941 271.604Z" fill="#F49F4A"/>
<path d="M289.361 270.118C289.429 274.175 271.041 277.797 248.284 278.207C225.523 278.62 207.016 275.661 206.941 271.604C206.869 267.547 225.257 263.923 248.018 263.515C270.775 263.101 289.288 266.06 289.361 270.118Z" fill="#F2CA4C"/>
<path d="M214.575 282.223C214.387 282.227 214.234 282.077 214.228 281.889L214.146 277.289C214.142 277.103 214.291 276.948 214.479 276.944C214.666 276.94 214.822 277.089 214.824 277.277L214.909 281.881C214.911 282.064 214.762 282.221 214.575 282.223Z" fill="white"/>
<path d="M227.706 284.288C227.518 284.294 227.363 284.144 227.359 283.956L227.277 279.354C227.275 279.166 227.424 279.015 227.61 279.011C227.798 279.005 227.949 279.156 227.957 279.34L228.035 283.944C228.039 284.131 227.892 284.284 227.706 284.288Z" fill="white"/>
<path d="M240.764 285.201C240.576 285.207 240.421 285.058 240.417 284.872L240.335 280.271C240.333 280.083 240.482 279.928 240.668 279.924C240.856 279.922 241.007 280.071 241.011 280.256L241.098 284.858C241.1 285.046 240.95 285.197 240.764 285.201Z" fill="white"/>
<path d="M254.032 284.964C253.844 284.966 253.689 284.817 253.685 284.631L253.603 280.03C253.599 279.842 253.748 279.689 253.936 279.683C254.122 279.681 254.279 279.83 254.279 280.016L254.365 284.621C254.367 284.807 254.218 284.96 254.032 284.964Z" fill="white"/>
<path d="M268.051 283.868C267.865 283.872 267.708 283.723 267.706 283.535L267.621 278.934C267.62 278.748 267.769 278.591 267.955 278.589C268.139 278.585 268.296 278.734 268.298 278.922L268.384 283.523C268.388 283.709 268.235 283.864 268.051 283.868Z" fill="white"/>
<path d="M282.113 280.848C281.925 280.852 281.77 280.703 281.766 280.515L281.684 275.912C281.68 275.728 281.831 275.573 282.013 275.569C282.205 275.565 282.356 275.714 282.36 275.903L282.447 280.503C282.449 280.689 282.299 280.846 282.113 280.848Z" fill="white"/>
<path d="M260.241 265.864C256.403 265.931 252.555 267.092 246.596 270.096C242.319 272.251 240.907 272.737 239.333 272.765C238.221 272.784 237.401 272.445 239.319 271.163C241.602 269.639 243.606 269.349 244.823 269.188L249.057 266.358C246.027 266.556 241.941 267.49 237.554 269.98L235.246 270.023L231.699 272.394L234.04 272.349C231.852 274.232 231.916 275.671 235.566 275.606C238.95 275.547 242.668 274.522 249.459 271.121C253.181 269.251 254.822 268.721 256.587 268.69C258.029 268.66 258.599 269.111 256.397 270.584C254.613 271.778 252.25 272.59 250.049 272.855L245.818 275.683C249.532 275.465 254.054 274.096 258.132 271.778L261.029 271.727L264.604 269.337L261.707 269.39C264.394 267.213 264.308 265.79 260.241 265.864Z" fill="#F49F4A"/>
<path d="M194.932 260.768L195.083 269.333C195.16 273.39 213.67 276.348 236.427 275.938C259.188 275.528 277.579 271.906 277.503 267.849L277.35 259.279L194.932 260.768Z" fill="#F49F4A"/>
<path d="M277.35 259.279C277.423 263.336 259.031 266.958 236.272 267.372C213.515 267.782 195.005 264.825 194.932 260.768C194.86 256.71 213.25 253.088 236.007 252.675C258.768 252.265 277.274 255.222 277.35 259.279Z" fill="#F2CA4C"/>
<path d="M202.564 271.388C202.376 271.39 202.225 271.241 202.221 271.055L202.135 266.455C202.133 266.266 202.282 266.111 202.468 266.107C202.657 266.105 202.812 266.255 202.815 266.439L202.898 271.041C202.9 271.229 202.751 271.38 202.564 271.388Z" fill="white"/>
<path d="M215.695 273.451C215.509 273.455 215.352 273.306 215.35 273.118L215.266 268.517C215.264 268.331 215.413 268.174 215.599 268.172C215.787 268.168 215.942 268.317 215.942 268.506L216.028 273.106C216.032 273.292 215.883 273.447 215.695 273.451Z" fill="white"/>
<path d="M228.753 274.365C228.565 274.369 228.41 274.22 228.408 274.032L228.324 269.431C228.322 269.245 228.471 269.092 228.657 269.086C228.845 269.082 229 269.231 229.004 269.419L229.087 274.022C229.09 274.21 228.941 274.363 228.753 274.365Z" fill="white"/>
<path d="M242.021 274.128C241.833 274.132 241.678 273.981 241.674 273.794L241.592 269.194C241.59 269.006 241.739 268.851 241.925 268.849C242.113 268.845 242.264 268.994 242.272 269.18L242.354 273.781C242.356 273.969 242.207 274.124 242.021 274.128Z" fill="white"/>
<path d="M256.04 273.03C255.854 273.032 255.697 272.886 255.695 272.698L255.613 268.096C255.609 267.908 255.758 267.757 255.946 267.753C256.132 267.747 256.285 267.896 256.291 268.082L256.374 272.686C256.377 272.873 256.228 273.026 256.04 273.03Z" fill="white"/>
<path d="M270.102 270.01C269.914 270.014 269.759 269.865 269.755 269.676L269.673 265.076C269.671 264.89 269.82 264.733 270.006 264.731C270.194 264.727 270.347 264.876 270.353 265.064L270.432 269.667C270.436 269.855 270.289 270.006 270.102 270.01Z" fill="white"/>
<path d="M248.231 255.024C244.392 255.094 240.544 256.253 234.589 259.26C230.308 261.413 228.898 261.899 227.322 261.927C226.21 261.948 225.39 261.609 227.308 260.326C229.591 258.803 231.595 258.514 232.81 258.352L237.046 255.52C234.02 255.72 229.932 256.65 225.547 259.142L223.235 259.183L219.69 261.556L222.029 261.515C219.841 263.397 219.905 264.835 223.557 264.768C226.941 264.707 230.657 263.682 237.448 260.281C241.17 258.414 242.811 257.881 244.576 257.85C246.018 257.824 246.592 258.273 244.386 259.748C242.602 260.94 240.242 261.756 238.04 262.019L233.811 264.848C237.523 264.629 242.043 263.256 246.123 260.942L249.018 260.889L252.593 258.501L249.7 258.552C252.383 256.373 252.299 254.951 248.231 255.024Z" fill="#F49F4A"/>
<path d="M291.445 267.939C291.3 267.943 291.155 267.872 291.065 267.743C288.865 264.533 280.915 262.527 280.837 262.507C280.591 262.448 280.446 262.203 280.505 261.962C280.566 261.717 280.813 261.572 281.054 261.629C281.395 261.715 289.422 263.74 291.812 267.231C291.951 267.439 291.9 267.721 291.695 267.86C291.618 267.911 291.532 267.937 291.445 267.939Z" fill="#F49F4A"/>
<path d="M193.183 270.518C192.934 270.523 192.728 270.323 192.722 270.076L192.558 260.809C192.552 260.562 192.75 260.356 193.001 260.352C193.25 260.346 193.456 260.546 193.46 260.793L193.626 270.057C193.63 270.308 193.434 270.514 193.183 270.518Z" fill="#F49F4A"/>
</g>
<defs>
<clipPath id="clip0_303_4999">
<rect width="361" height="392" fill="white"/>
</clipPath>
</defs>
</svg>
